# xmcd
#
# Track frame offsets:
#	150
#	18433
#	35989
#	51306
#	67542
#	82280
#	98041
#	115568
#	135468
#	150726
#	168363
#	182427
#	196391
#
# Disc length: 2857 seconds
#
# Revision: 0
# Processed by: cddbd v1.5.1PL0 Copyright (c) Steve Scherf et al.
# Submitted via: EasyCDDAExtractor 4.6.9.1
#
DISCID=a40b270d
DTITLE=Sean Ardoin - Zydekool
DYEAR=1900
DGENRE=Blues
TTITLE0=2Fingers
TTITLE1=Don't Fool Me Now
TTITLE2=ZydeKool Theme Song
TTITLE3=That Ain't Right
TTITLE4=Lil' Lawman Girl
TTITLE5=All About You
TTITLE6=Won't Slow Down
TTITLE7=Long Time
TTITLE8=You Better Get Girl
TTITLE9=Got My Jelly Workin'
TTITLE10=You Complete Me
TTITLE11=Comment t'appelle
TTITLE12=Comme Ca, Just Like That
EXTD=
EXTT0=
EXTT1=
EXTT2=
EXTT3=
EXTT4=
EXTT5=
EXTT6=
EXTT7=
EXTT8=
EXTT9=
EXTT10=
EXTT11=
EXTT12=
PLAYORDER=
